{
  "accessors": [
    {
      "bufferView": 2,
      "componentType": 5126,
      "count": 6006,
      "max": [
        0.20580999553203583,
        0.20450599491596222,
        1.5505609512329102
      ],
      "min": [
        -0.13768500089645386,
        -0.13791799545288086,
        0.008446999825537205
      ],
      "type": "VEC3"
    },
    {
      "bufferView": 2,
      "byteOffset": 72072,
      "componentType": 5126,
      "count": 6006,
      "max": [
        0.9999520778656006,
        0.9997147917747498,
        0.9998559951782227
      ],
      "min": [
        -0.9994900822639465,
        -0.999087393283844,
        -0.9999850988388062
      ],
      "type": "VEC3"
    },
    {
      "bufferView": 1,
      "componentType": 5126,
      "count": 6006,
      "max": [
        0.9828529953956604,
        0.9782959818840027
      ],
      "min": [
        0.017146000638604164,
        0.016116000711917877
      ],
      "type": "VEC2"
    },
    {
      "bufferView": 0,
      "componentType": 5125,
      "count": 30006,
      "type": "SCALAR"
    },
    {
      "bufferView": 2,
      "byteOffset": 144144,
      "componentType": 5126,
      "count": 747,
      "max": [
        0.175245001912117,
        0.1745920032262802,
        1.3053900003433228
      ],
      "min": [
        -0.19484099745750427,
        -0.19484099745750427,
        0.5032600164413452
      ],
      "type": "VEC3"
    },
    {
      "bufferView": 2,
      "byteOffset": 153108,
      "componentType": 5126,
      "count": 747,
      "max": [
        0.999729335308075,
        0.999729335308075,
        0.9965837001800537
      ],
      "min": [
        -0.9983854293823242,
        -0.9962388873100281,
        -0.8101732134819031
      ],
      "type": "VEC3"
    },
    {
      "bufferView": 3,
      "componentType": 5126,
      "count": 747,
      "max": [
        0.8530012965202332,
        0.999854326248169,
        0.9602299928665161,
        1.0
      ],
      "min": [
        -0.999854326248169,
        -0.9993553757667542,
        -0.9950263500213623,
        -1.0
      ],
      "type": "VEC4"
    },
    {
      "bufferView": 1,
      "byteOffset": 48048,
      "componentType": 5126,
      "count": 747,
      "max": [
        0.9425470232963562,
        0.9714620113372803
      ],
      "min": [
        0.02645600028336048,
        0.011989999562501907
      ],
      "type": "VEC2"
    },
    {
      "bufferView": 0,
      "byteOffset": 120024,
      "componentType": 5125,
      "count": 3768,
      "type": "SCALAR"
    },
    {
      "bufferView": 2,
      "byteOffset": 162072,
      "componentType": 5126,
      "count": 202,
      "max": [
        0.10142599791288376,
        0.10142599791288376,
        1.4330430030822754
      ],
      "min": [
        0.004683000035583973,
        0.004683000035583973,
        1.375128984451294
      ],
      "type": "VEC3"
    },
    {
      "bufferView": 2,
      "byteOffset": 164496,
      "componentType": 5126,
      "count": 202,
      "max": [
        0.9998761415481567,
        0.9998761415481567,
        0.23490461707115173
      ],
      "min": [
        -0.04719862341880798,
        -0.04719862341880798,
        -0.6542944312095642
      ],
      "type": "VEC3"
    },
    {
      "bufferView": 1,
      "byteOffset": 54024,
      "componentType": 5126,
      "count": 202,
      "max": [
        0.9883120059967041,
        0.7373780012130737
      ],
      "min": [
        0.011687999591231346,
        0.26285800337791443
      ],
      "type": "VEC2"
    },
    {
      "bufferView": 0,
      "byteOffset": 135096,
      "componentType": 5125,
      "count": 1104,
      "type": "SCALAR"
    },
    {
      "bufferView": 2,
      "byteOffset": 166920,
      "componentType": 5126,
      "count": 935,
      "max": [
        0.1289220005273819,
        0.12703999876976013,
        1.5692280530929565
      ],
      "min": [
        -0.11318200081586838,
        -0.11318200081586838,
        1.2604609727859497
      ],
      "type": "VEC3"
    },
    {
      "bufferView": 2,
      "byteOffset": 178140,
      "componentType": 5126,
      "count": 935,
      "max": [
        0.9992953538894653,
        0.9985578656196594,
        0.9992045164108276
      ],
      "min": [
        -0.9942238330841064,
        -0.9942135214805603,
        -0.9995376467704773
      ],
      "type": "VEC3"
    },
    {
      "bufferView": 1,
      "byteOffset": 55640,
      "componentType": 5126,
      "count": 935,
      "max": [
        0.9843199849128723,
        0.9740409851074219
      ],
      "min": [
        0.01568100042641163,
        0.026321999728679657
      ],
      "type": "VEC2"
    },
    {
      "bufferView": 0,
      "byteOffset": 139512,
      "componentType": 5125,
      "count": 4644,
      "type": "SCALAR"
    },
    {
      "bufferView": 2,
      "byteOffset": 189360,
      "componentType": 5126,
      "count": 1442,
      "max": [
        0.14291499555110931,
        0.17499099671840668,
        0.056081999093294144
      ],
      "min": [
        -0.09760300070047379,
        -0.1280200034379959,
        -0.0008500000112690032
      ],
      "type": "VEC3"
    },
    {
      "bufferView": 2,
      "byteOffset": 206664,
      "componentType": 5126,
      "count": 1442,
      "max": [
        0.9945252537727356,
        0.9985983371734619,
        0.9999970197677612
      ],
      "min": [
        -0.9998832941055298,
        -0.9982768297195435,
        -0.9999890327453613
      ],
      "type": "VEC3"
    },
    {
      "bufferView": 1,
      "byteOffset": 63120,
      "componentType": 5126,
      "count": 1442,
      "max": [
        0.9829409718513489,
        0.9673849940299988
      ],
      "min": [
        0.017044000327587128,
        0.03129800036549568
      ],
      "type": "VEC2"
    },
    {
      "bufferView": 0,
      "byteOffset": 158088,
      "componentType": 5125,
      "count": 7068,
      "type": "SCALAR"
    }
  ],
  "asset": {
    "extras": {
      "author": "Mifu Saja (https://sketchfab.com/mifusaja)",
      "license": "CC-BY-4.0 (http://creativecommons.org/licenses/by/4.0/)",
      "source": "https://sketchfab.com/3d-models/female-type-3-pose-3-hoping-2f3857467b384ada9419ac7a78ecf30b",
      "title": "Female - Type 3 (Pose 3: Hoping)"
    },
    "generator": "Sketchfab-14.27.0",
    "version": "2.0"
  },
  "bufferViews": [
    {
      "buffer": 0,
      "byteLength": 186360,
      "name": "floatBufferViews",
      "target": 34963
    },
    {
      "buffer": 0,
      "byteLength": 74656,
      "byteOffset": 186360,
      "byteStride": 8,
      "name": "floatBufferViews",
      "target": 34962
    },
    {
      "buffer": 0,
      "byteLength": 223968,
      "byteOffset": 261016,
      "byteStride": 12,
      "name": "floatBufferViews",
      "target": 34962
    },
    {
      "buffer": 0,
      "byteLength": 11952,
      "byteOffset": 484984,
      "byteStride": 16,
      "name": "floatBufferViews",
      "target": 34962
    }
  ],
  "buffers": [
    {
      "byteLength": 496936,
      "uri": "scene.bin"
    }
  ],
  "images": [
    {
      "uri": "textures/Body_baseColor.png"
    },
    {
      "uri": "textures/Cloth_baseColor.png"
    },
    {
      "uri": "textures/Cloth_normal.png"
    },
    {
      "uri": "textures/material_baseColor.png"
    },
    {
      "uri": "textures/Hair_baseColor.png"
    },
    {
      "uri": "textures/Sandals_baseColor.png"
    },
    {
      "uri": "textures/Sandals_metallicRoughness.png"
    }
  ],
  "materials": [
    {
      "alphaMode": "BLEND",
      "doubleSided": true,
      "name": "Body",
      "pbrMetallicRoughness": {
        "baseColorTexture": {
          "index": 0
        },
        "metallicFactor": 0.0,
        "roughnessFactor": 0.6
      }
    },
    {
      "doubleSided": true,
      "name": "Cloth",
      "normalTexture": {
        "index": 2
      },
      "pbrMetallicRoughness": {
        "baseColorTexture": {
          "index": 1
        },
        "metallicFactor": 0.0,
        "roughnessFactor": 0.6
      }
    },
    {
      "doubleSided": true,
      "name": "material",
      "pbrMetallicRoughness": {
        "baseColorTexture": {
          "index": 3
        },
        "metallicFactor": 0.0,
        "roughnessFactor": 0.6
      }
    },
    {
      "doubleSided": true,
      "name": "Hair",
      "pbrMetallicRoughness": {
        "baseColorTexture": {
          "index": 4
        },
        "metallicFactor": 0.0,
        "roughnessFactor": 0.6
      }
    },
    {
      "doubleSided": true,
      "name": "Sandals",
      "pbrMetallicRoughness": {
        "baseColorTexture": {
          "index": 5
        },
        "metallicFactor": 0.0,
        "metallicRoughnessTexture": {
          "index": 6
        }
      }
    }
  ],
  "meshes": [
    {
      "name": "Object_0",
      "primitives": [
        {
          "attributes": {
            "NORMAL": 1,
            "POSITION": 0,
            "TEXCOORD_0": 2
          },
          "indices": 3,
          "material": 0,
          "mode": 4
        }
      ]
    },
    {
      "name": "Object_1",
      "primitives": [
        {
          "attributes": {
            "NORMAL": 5,
            "POSITION": 4,
            "TANGENT": 6,
            "TEXCOORD_0": 7
          },
          "indices": 8,
          "material": 1,
          "mode": 4
        }
      ]
    },
    {
      "name": "Object_2",
      "primitives": [
        {
          "attributes": {
            "NORMAL": 10,
            "POSITION": 9,
            "TEXCOORD_0": 11
          },
          "indices": 12,
          "material": 2,
          "mode": 4
        }
      ]
    },
    {
      "name": "Object_3",
      "primitives": [
        {
          "attributes": {
            "NORMAL": 14,
            "POSITION": 13,
            "TEXCOORD_0": 15
          },
          "indices": 16,
          "material": 3,
          "mode": 4
        }
      ]
    },
    {
      "name": "Object_4",
      "primitives": [
        {
          "attributes": {
            "NORMAL": 18,
            "POSITION": 17,
            "TEXCOORD_0": 19
          },
          "indices": 20,
          "material": 4,
          "mode": 4
        }
      ]
    }
  ],
  "nodes": [
    {
      "children": [
        1
      ],
      "matrix": [
        1.0,
        0.0,
        0.0,
        0.0,
        0.0,
        2.220446049250313e-16,
        -1.0,
        0.0,
        0.0,
        1.0,
        2.220446049250313e-16,
        0.0,
        0.0,
        0.0,
        0.0,
        1.0
      ],
      "name": "Sketchfab_model"
    },
    {
      "children": [
        2,
        3,
        4,
        5,
        6
      ],
      "name": "Female Casual - Pose 3 (Hoping).obj.cleaner.materialmerger.gles"
    },
    {
      "mesh": 0,
      "name": "Object_2"
    },
    {
      "mesh": 1,
      "name": "Object_3"
    },
    {
      "mesh": 2,
      "name": "Object_4"
    },
    {
      "mesh": 3,
      "name": "Object_5"
    },
    {
      "mesh": 4,
      "name": "Object_6"
    }
  ],
  "samplers": [
    {
      "magFilter": 9729,
      "minFilter": 9987,
      "wrapS": 10497,
      "wrapT": 10497
    }
  ],
  "scene": 0,
  "scenes": [
    {
      "name": "Sketchfab_Scene",
      "nodes": [
        0
      ]
    }
  ],
  "textures": [
    {
      "sampler": 0,
      "source": 0
    },
    {
      "sampler": 0,
      "source": 1
    },
    {
      "sampler": 0,
      "source": 2
    },
    {
      "sampler": 0,
      "source": 3
    },
    {
      "sampler": 0,
      "source": 4
    },
    {
      "sampler": 0,
      "source": 5
    },
    {
      "sampler": 0,
      "source": 6
    }
  ]
}
